<svg width="20" height="20" viewBox="0 0 20 20" fill="none" xmlns="http://www.w3.org/2000/svg">
<path d="M13.556 12.547L13.012 12.031L13.556 12.548V12.547ZM17.002 18.254L16.457 17.737L17.001 18.254H17.002ZM15.676 18.964L15.75 19.709L15.676 18.963V18.964ZM1.75202 4.92503C1.74671 4.82667 1.72207 4.73032 1.67951 4.64148C1.63696 4.55264 1.57732 4.47306 1.50401 4.40727C1.4307 4.34148 1.34514 4.29077 1.25224 4.25804C1.15933 4.22532 1.06088 4.21121 0.962524 4.21653C0.864164 4.22185 0.767814 4.24649 0.678977 4.28904C0.590139 4.3316 0.510553 4.39123 0.444763 4.46454C0.378973 4.53785 0.328267 4.62341 0.295539 4.71631C0.262812 4.80922 0.248705 4.90767 0.254024 5.00603L1.75202 4.92503ZM2.71802 1.09203C2.58669 1.23717 2.5173 1.4279 2.52467 1.6235C2.53205 1.8191 2.6156 2.00407 2.75749 2.13891C2.89938 2.27375 3.08836 2.34778 3.28408 2.34518C3.47981 2.34259 3.66676 2.26358 3.80502 2.12503L2.71802 1.09203ZM8.66402 17.812C8.74742 17.8658 8.84065 17.9024 8.93832 17.9199C9.03599 17.9374 9.13615 17.9353 9.233 17.9137C9.32985 17.8922 9.42147 17.8517 9.50255 17.7945C9.58363 17.7373 9.65256 17.6646 9.70535 17.5806C9.75813 17.4966 9.79373 17.403 9.81007 17.3051C9.82641 17.2073 9.82317 17.1071 9.80054 17.0105C9.7779 16.9139 9.73633 16.8228 9.67822 16.7424C9.62012 16.6619 9.54663 16.5938 9.46202 16.542L8.66402 17.812ZM13.113 18.058C12.9182 18.0173 12.7152 18.0557 12.5487 18.1646C12.3822 18.2736 12.2657 18.4442 12.225 18.639C12.1843 18.8338 12.2227 19.0368 12.3316 19.2034C12.4406 19.3699 12.6112 19.4863 12.806 19.527L13.113 18.058ZM13.645 13.544L14.1 13.064L13.012 12.031L12.557 12.511L13.645 13.544ZM15.599 12.862L17.509 13.962L18.257 12.662L16.347 11.562L15.599 12.862ZM17.878 16.242L16.457 17.737L17.545 18.771L18.965 17.275L17.878 16.242ZM6.35902 13.959C2.48302 9.87803 1.83302 6.43503 1.75202 4.92503L0.254024 5.00603C0.354024 6.85603 1.13802 10.64 5.27202 14.992L6.35902 13.959ZM7.73502 7.32203L8.02102 7.02003L6.93402 5.98703L6.64702 6.28903L7.73502 7.32203ZM8.24702 3.26003L6.98602 1.47703L5.76102 2.34303L7.02102 4.12603L8.24702 3.26003ZM7.19002 6.80503C7.01004 6.63158 6.82837 6.45991 6.64502 6.29003L6.64302 6.29203L6.64002 6.29503C6.62227 6.3134 6.60558 6.33276 6.59002 6.35303C6.492 6.48278 6.41443 6.62678 6.36002 6.78003C6.26202 7.05503 6.21002 7.41903 6.27602 7.87303C6.40602 8.76503 6.99102 9.96403 8.51802 11.573L9.60602 10.539C8.17802 9.03603 7.82602 8.11103 7.76002 7.65503C7.72802 7.43503 7.76002 7.32003 7.77302 7.28303L7.78102 7.26403C7.77284 7.27719 7.76347 7.28958 7.75302 7.30103C7.74716 7.30782 7.74116 7.31549 7.73502 7.32203L7.19002 6.80503ZM8.51802 11.572C10.041 13.176 11.191 13.806 12.068 13.949C12.519 14.022 12.884 13.963 13.16 13.854C13.3129 13.794 13.4551 13.7096 13.581 13.604L13.617 13.57L13.631 13.556C13.6334 13.5541 13.6357 13.5521 13.638 13.55L13.641 13.547L13.642 13.545C13.642 13.545 13.644 13.544 13.1 13.027C12.556 12.511 12.557 12.51 12.557 12.509L12.559 12.508L12.561 12.505L12.567 12.5C12.5821 12.4854 12.5978 12.4714 12.614 12.458C12.623 12.452 12.622 12.454 12.609 12.459C12.589 12.467 12.499 12.499 12.309 12.468C11.907 12.402 11.039 12.048 9.60602 10.539L8.51802 11.572ZM6.98602 1.47703C5.97202 0.0430275 3.94402 -0.199972 2.71802 1.09203L3.80502 2.12503C4.32802 1.57503 5.24902 1.61803 5.76102 2.34303L6.98602 1.47703ZM16.457 17.737C16.178 18.031 15.887 18.189 15.603 18.217L15.75 19.709C16.497 19.636 17.102 19.238 17.545 18.771L16.457 17.738V17.737ZM8.02102 7.02003C8.98902 6.00103 9.05702 4.40703 8.24702 3.26003L7.02202 4.12603C7.44402 4.72303 7.37902 5.51903 6.93402 5.98703L8.02102 7.02003ZM17.509 13.962C18.33 14.435 18.491 15.597 17.878 16.242L18.965 17.275C20.27 15.901 19.889 13.602 18.257 12.662L17.509 13.962ZM14.1 13.064C14.485 12.658 15.086 12.567 15.599 12.862L16.347 11.562C15.248 10.93 13.887 11.111 13.012 12.031L14.1 13.064ZM9.46202 16.542C8.47902 15.924 7.43202 15.088 6.35902 13.959L5.27202 14.992C6.42602 16.207 7.56902 17.124 8.66402 17.812L9.46202 16.542ZM15.602 18.217C14.7691 18.2902 13.9299 18.2366 13.113 18.058L12.806 19.527C13.7725 19.7364 14.7651 19.7977 15.75 19.709L15.603 18.217H15.602Z" fill="#272727"/>
</svg>
